<?xml version="1.0" standalone="no"?>
<!DOCTYPE svg PUBLIC "-//W3C//DTD SVG 20010904//EN"
 "http://www.w3.org/TR/2001/REC-SVG-20010904/DTD/svg10.dtd">
<svg version="1.0" xmlns="http://www.w3.org/2000/svg"
 width="264.000000pt" height="66.000000pt" viewBox="0 0 264.000000 66.000000"
 preserveAspectRatio="xMidYMid meet">
<metadata>
Created by potrace 1.16, written by Peter Selinger 2001-2019
</metadata>
<g transform="translate(0.000000,50.000000) scale(0.015783,-0.012626)"
fill="#000000" stroke="none">
<path d="M4205 2150 c-422 -726 -770 -1322 -774 -1324 -8 -6 -1046 603 -1044
612 1 5 54 97 117 205 64 108 116 199 116 201 0 6 -157 96 -168 96 -9 0 -342
-561 -342 -576 0 -7 1026 -612 1340 -791 l57 -32 52 92 c30 51 149 256 265
457 l211 365 303 3 302 2 0 -475 0 -475 100 0 100 0 0 475 0 475 205 0 205 0
0 100 0 100 -202 2 -203 3 -3 587 -2 586 156 268 c145 250 154 269 137 282
-29 21 -140 82 -151 82 -5 0 -354 -594 -777 -1320z m430 -477 c-3 -10 -59 -13
-234 -13 -126 0 -232 3 -234 8 -3 4 102 189 232 412 l236 405 3 -400 c1 -220
0 -406 -3 -412z"/>
<path d="M5427 3423 c-13 -21 -36 -59 -50 -84 l-27 -46 0 -1297 0 -1297 61
-79 c34 -44 65 -78 69 -75 3 2 285 222 626 489 l619 486 3 -510 2 -510 650 0
650 0 0 100 0 100 -550 0 -550 0 2 438 3 437 288 3 287 2 0 100 0 100 -287 2
-288 3 0 320 0 320 173 3 172 2 0 100 0 100 -221 0 -222 0 -687 415 c-378 228
-690 415 -694 415 -3 0 -16 -17 -29 -37z m726 -616 l577 -349 0 -338 0 -339
-577 -452 c-318 -248 -584 -456 -590 -462 -10 -7 -13 223 -13 1147 0 955 2
1156 13 1149 7 -4 273 -165 590 -356z"/>
<path d="M10678 2124 c-27 -25 -48 -47 -48 -50 0 -3 84 -98 186 -211 l185
-207 -218 -218 -217 -218 44 -45 c24 -25 49 -45 55 -45 5 0 126 116 269 259
276 276 271 269 220 312 -10 8 -98 104 -197 214 -99 110 -192 212 -206 227
l-26 27 -47 -45z"/>
<path d="M8064 1808 l1 -233 268 -3 267 -2 0 -89 c0 -72 -3 -90 -16 -95 -9 -3
-128 -6 -265 -6 l-249 0 0 -64 0 -63 328 -5 c180 -3 330 -3 335 -1 4 2 7 107
7 233 l0 230 -267 2 -268 3 0 90 0 90 268 3 267 2 0 70 0 70 -338 0 -339 0 1
-232z"/>
<path d="M8930 1970 l0 -70 335 0 335 0 0 70 0 70 -335 0 -335 0 0 -70z"/>
<path d="M9777 2033 c-4 -3 -7 -181 -7 -394 0 -301 3 -388 13 -391 6 -2 161
-3 342 -3 l330 1 3 397 2 397 -70 0 -70 0 0 -325 0 -325 -205 0 -205 0 0 325
0 325 -63 0 c-35 0 -67 -3 -70 -7z"/>
<path d="M11340 1645 l0 -395 70 0 70 0 0 395 0 395 -70 0 -70 0 0 -395z"/>
<path d="M12647 1813 c-3 -125 -3 -231 -1 -235 3 -4 124 -8 270 -8 l265 0 -3
-92 -3 -93 -262 -3 -263 -2 0 -64 0 -63 328 -5 c180 -3 330 -3 335 -1 4 2 7
107 7 233 l0 230 -267 2 -268 3 0 90 0 90 268 3 267 2 0 70 0 70 -333 0 -334
0 -6 -227z"/>
<path d="M11722 1633 l3 -397 339 0 340 0 -1 395 0 394 -341 3 -342 2 2 -397z
m546 0 l2 -253 -22 -5 c-13 -3 -104 -4 -203 -3 l-180 3 -3 258 -2 257 202 -2
203 -3 3 -252z"/>
<path d="M10600 1660 l0 -220 70 0 70 0 0 220 0 220 -70 0 -70 0 0 -220z"/>
<path d="M9190 1480 l0 -230 70 0 70 0 0 230 0 230 -70 0 -70 0 0 -230z"/>
</g>
</svg>
