<?xml version="1.0" encoding="utf-8"?>
<!-- Generator: Adobe Illustrator 21.1.0, SVG Export Plug-In . SVG Version: 6.00 Build 0)  -->
<svg version="1.1" xmlns="http://www.w3.org/2000/svg" xmlns:xlink="http://www.w3.org/1999/xlink" x="0px" y="0px"
	 viewBox="0 0 125 40" enable-background="new 0 0 125 40" xml:space="preserve">
<g id="bg" display="none">
	<rect display="inline" fill="#FFFFFF" width="125" height="40"/>
</g>
<g id="icons">
	<g id="_x38_7FQx5_1_">
		<g>
			<path fill="#315FAB" d="M0,33.492c0-8.994,0-17.989,0-26.983c41.667,0,83.333,0,125,0c0,8.994,0,17.989,0,26.983
				C83.333,33.492,41.667,33.492,0,33.492z M22.233,26.73c1.598,0.997,2.113,2.503,2.211,4.332c1.616-0.924,2.42-2.218,2.554-3.977
				c1.291-0.185,1.747,0.999,2.662,1.608c-0.03-0.323-0.026-0.533-0.073-0.731c-0.277-1.174-0.939-2.12-1.838-2.942
				c1.08-0.983,2.081-1.957,2.649-3.403c-0.796,0.102-1.447,0.375-2.227,0.219c0.475-1.273,0.669-2.529,0.476-3.823
				c-0.192-1.291-0.596-2.498-1.428-3.577c-0.358,1.092-0.709,2.151-1.78,2.807c-0.072-0.198-0.134-0.318-0.16-0.446
				c-0.175-0.866-0.576-1.624-1.129-2.3c-1.194-1.462-2.736-2.451-4.446-3.191c-0.177-0.076-0.454-0.024-0.647,0.058
				c-1.192,0.507-2.285,1.184-3.259,2.037c-1.09,0.955-1.947,2.066-2.211,3.544c-0.015,0.086-0.081,0.163-0.146,0.287
				c-1.077-0.635-1.368-1.739-1.789-2.788c-1.514,2.315-1.898,4.758-0.916,7.48c-0.814-0.104-1.48-0.189-2.25-0.287
				c0.684,1.589,1.807,2.685,3.131,3.73c-0.205,0.156-0.339,0.238-0.448,0.345c-0.237,0.233-0.346,0.512-0.198,0.835
				c0.159,0.346,0.434,0.53,0.823,0.514c0.153-0.006,0.307-0.022,0.458-0.05c2.167-0.405,4.334-0.814,6.501-1.217
				c0.196-0.036,0.399-0.034,0.668-0.056c-0.21,1.588-0.879,2.9-1.63,4.211C19.727,29.532,21.109,28.378,22.233,26.73z
				 M76.566,29.514c0-0.234,0-0.406,0-0.578c0.001-1.979-0.024-3.958,0.017-5.936c0.013-0.62,0.129-1.263,0.334-1.849
				c0.266-0.76,0.883-1.02,1.838-0.934c0.741,0.066,1.137,0.409,1.302,1.226c0.09,0.447,0.111,0.914,0.114,1.372
				c0.011,2.017,0.005,4.034,0.005,6.051c0,0.204,0,0.409,0,0.634c1.336,0,2.592,0,3.859,0c0.012-0.131,0.028-0.225,0.028-0.319
				c0-2.689,0.016-5.379-0.016-8.068c-0.007-0.565-0.139-1.144-0.307-1.687c-0.282-0.91-0.905-1.548-1.794-1.902
				c-0.899-0.358-1.837-0.382-2.777-0.232c-1.141,0.182-2.013,0.801-2.684,1.822c-0.751-1.454-1.985-1.887-3.47-1.902
				c-1.487-0.015-2.675,0.527-3.597,1.815c-0.027-0.566-0.05-1.033-0.072-1.5c-1.284,0-2.501,0-3.753,0c0,4.011,0,7.977,0,11.972
				c1.288,0,2.544,0,3.841,0c0-0.248,0-0.457,0-0.667c0-1.844-0.006-3.688,0.005-5.532c0.003-0.459,0.018-0.927,0.11-1.374
				c0.079-0.385,0.219-0.782,0.431-1.109c0.427-0.657,1.12-0.682,1.807-0.58c0.615,0.091,1.003,0.475,1.112,1.088
				c0.08,0.451,0.143,0.911,0.146,1.368c0.015,2.055,0.005,4.111,0.008,6.166c0,0.22,0.025,0.439,0.038,0.654
				C74.273,29.514,75.382,29.514,76.566,29.514z M46.875,17.515c0,4.042,0,8.008,0,11.978c1.315,0,2.588,0,3.908,0
				c0-0.235,0-0.425,0-0.614c0.001-1.825-0.021-3.651,0.013-5.475c0.013-0.684,0.071-1.39,0.26-2.042
				c0.312-1.072,1.723-1.567,2.647-0.95c0.271,0.181,0.465,0.554,0.576,0.88c0.122,0.355,0.142,0.756,0.145,1.137
				c0.019,2.152,0.019,4.303,0.025,6.455c0.001,0.202,0,0.404,0,0.607c1.382,0,2.675,0,3.963,0c0.015-0.105,0.03-0.161,0.03-0.218
				c0-2.632,0.004-5.264-0.007-7.896c-0.002-0.382-0.05-0.768-0.115-1.146c-0.228-1.335-0.802-2.436-2.229-2.775
				c-0.699-0.166-1.44-0.217-2.161-0.209c-1.106,0.012-2.038,0.48-2.778,1.312c-0.119,0.135-0.242,0.266-0.453,0.498
				c0-0.602,0-1.072,0-1.542C49.403,17.515,48.16,17.515,46.875,17.515z M116.146,25.796c-1.29,0-2.531,0-3.772,0
				c-0.627,1.134-1.736,1.56-2.906,1.113c-0.879-0.336-1.428-1.442-1.177-2.46c2.664,0,5.343,0,8.115,0
				c-0.061-0.845-0.049-1.638-0.188-2.403c-0.441-2.44-1.772-4.152-4.257-4.738c-0.808-0.19-1.679-0.214-2.514-0.168
				c-2.398,0.132-4.278,1.655-4.987,3.953c-0.482,1.563-0.493,3.148-0.066,4.714c0.417,1.53,1.306,2.759,2.771,3.427
				c2.17,0.989,4.37,0.937,6.487-0.167C114.952,28.388,115.761,27.271,116.146,25.796z M88.862,21.246
				c0.03-0.039,0.061-0.066,0.076-0.1c0.521-1.12,1.799-1.582,2.927-1.067c0.446,0.203,0.6,0.553,0.606,1.016
				c0.005,0.426-0.262,0.617-0.604,0.742c-0.268,0.098-0.542,0.191-0.821,0.25c-1.068,0.226-2.151,0.394-3.207,0.665
				c-2.116,0.543-3.073,1.955-2.871,4.134c0.127,1.373,0.951,2.426,2.273,2.812c1.761,0.514,3.376,0.191,4.822-0.946
				c0.154-0.121,0.313-0.238,0.493-0.375c0.054,0.255,0.129,0.443,0.125,0.629c-0.011,0.49,0.262,0.546,0.666,0.537
				c0.96-0.021,1.92-0.004,2.88-0.006c0.186,0,0.372-0.017,0.661-0.032c-0.095-0.24-0.159-0.4-0.222-0.562
				c-0.129-0.333-0.309-0.657-0.372-1.003c-0.075-0.411-0.059-0.841-0.064-1.263c-0.023-1.9-0.003-3.802-0.07-5.701
				c-0.067-1.879-1.03-3.016-2.845-3.504c-1.148-0.308-2.321-0.316-3.489-0.206c-1.198,0.113-2.348,0.415-3.258,1.28
				c-0.763,0.726-1.166,1.62-1.259,2.698C86.534,21.246,87.702,21.246,88.862,21.246z M37.997,21.266
				c0.56-1.21,1.645-1.671,2.865-1.253c0.466,0.16,0.708,0.488,0.735,0.993c0.023,0.442-0.136,0.678-0.678,0.867
				c-0.396,0.138-0.811,0.226-1.222,0.317c-1.028,0.227-2.081,0.372-3.084,0.68c-1.65,0.506-2.463,1.587-2.547,3.302
				c-0.094,1.925,0.937,3.312,2.781,3.65c1.55,0.284,2.975-0.01,4.235-0.986c0.19-0.147,0.378-0.298,0.599-0.473
				c0.09,0.427,0.163,0.775,0.245,1.168c1.274,0,2.519,0.011,3.763-0.008c0.305-0.005,0.32-0.214,0.151-0.541
				c-0.18-0.347-0.332-0.721-0.421-1.1c-0.077-0.331-0.062-0.686-0.066-1.031c-0.017-1.882-0.002-3.765-0.045-5.646
				c-0.048-2.103-1.004-3.261-3.04-3.764c-1.191-0.294-2.397-0.277-3.603-0.137c-0.885,0.103-1.739,0.332-2.48,0.85
				c-1.062,0.742-1.629,1.767-1.732,3.082c0.137,0.014,0.212,0.028,0.287,0.028C35.818,21.267,36.893,21.266,37.997,21.266z
				 M104.036,27.087c-0.161-0.014-0.291-0.032-0.42-0.035c-1.109-0.032-1.442-0.275-1.479-1.377
				c-0.063-1.88-0.035-3.763-0.043-5.645c0-0.032,0.036-0.064,0.093-0.161c0.603,0,1.246,0,1.894,0c0-0.822,0-1.579,0-2.406
				c-0.679,0-1.32,0-2.026,0c0-1.154,0-2.238,0-3.315c-1.344,0-2.618,0-3.951,0c0,1.129,0,2.215,0,3.358c-0.569,0-1.08,0-1.605,0
				c0,0.817,0,1.573,0,2.384c0.552,0,1.063,0,1.628,0c0,0.262,0,0.468,0,0.674c0.001,1.556-0.035,3.114,0.019,4.668
				c0.031,0.895,0.166,1.793,0.329,2.676c0.174,0.944,0.819,1.505,1.729,1.73c1.275,0.315,2.544,0.175,3.832-0.097
				C104.036,28.708,104.036,27.911,104.036,27.087z M60.071,15.151c-0.016,0.251-0.036,0.418-0.036,0.585
				c-0.001,1.651,0.002,3.302,0.003,4.953c0.002,2.745,0.001,5.491,0.007,8.236c0.001,0.598,0.028,0.615,0.617,0.617
				c0.864,0.003,1.728,0.004,2.592,0.004c0.726,0,0.728-0.001,0.728-0.744c0-4.262,0-8.524-0.001-12.786
				c0-0.154-0.007-0.307-0.007-0.461c0.001-0.288-0.14-0.409-0.428-0.408C62.415,15.155,61.284,15.151,60.071,15.151z
				 M60.045,13.842c1.349,0,2.586,0,3.819,0c0.034-0.07,0.08-0.12,0.081-0.171c0.012-1.09,0.031-2.181,0.011-3.271
				c-0.002-0.118-0.233-0.328-0.362-0.331c-1.052-0.026-2.104-0.018-3.157-0.009c-0.237,0.002-0.394,0.118-0.393,0.39
				C60.047,11.558,60.045,12.666,60.045,13.842z M17.467,28.355c-0.002-0.812-0.698-1.518-1.501-1.523
				c-0.829-0.005-1.555,0.718-1.546,1.541c0.008,0.814,0.708,1.519,1.505,1.516C16.787,29.886,17.47,29.207,17.467,28.355z"/>
			<path fill="#F9FBFC" d="M22.233,26.73c-1.124,1.648-2.505,2.801-4.441,3.218c0.751-1.312,1.42-2.623,1.63-4.211
				c-0.27,0.021-0.472,0.019-0.668,0.056c-2.168,0.403-4.334,0.812-6.501,1.217c-0.15,0.028-0.305,0.043-0.458,0.05
				c-0.389,0.016-0.664-0.168-0.823-0.514c-0.148-0.323-0.039-0.602,0.198-0.835c0.109-0.107,0.243-0.189,0.448-0.345
				c-1.324-1.045-2.447-2.141-3.131-3.73c0.77,0.098,1.436,0.184,2.25,0.287c-0.982-2.722-0.599-5.165,0.916-7.48
				c0.42,1.049,0.712,2.153,1.789,2.788c0.064-0.123,0.131-0.2,0.146-0.287c0.264-1.477,1.121-2.589,2.211-3.544
				c0.974-0.853,2.067-1.53,3.259-2.037c0.193-0.082,0.47-0.134,0.647-0.058c1.711,0.74,3.253,1.729,4.446,3.191
				c0.553,0.677,0.953,1.434,1.129,2.3c0.026,0.128,0.088,0.248,0.16,0.446c1.07-0.655,1.422-1.715,1.78-2.807
				c0.832,1.079,1.236,2.286,1.428,3.577c0.193,1.294-0.002,2.55-0.476,3.823c0.78,0.156,1.43-0.117,2.227-0.219
				c-0.567,1.447-1.569,2.421-2.649,3.403c0.899,0.822,1.561,1.768,1.838,2.942c0.047,0.198,0.042,0.408,0.073,0.731
				c-0.915-0.609-1.371-1.793-2.662-1.608c-0.134,1.759-0.938,3.053-2.554,3.977C24.345,29.233,23.831,27.727,22.233,26.73z
				 M26.302,22.744c-0.103-0.069-0.168-0.11-0.231-0.155c-0.125-0.089-0.246-0.184-0.372-0.271c-1.65-1.13-3.475-1.865-5.384-2.422
				c-0.613-0.179-1.195-0.189-1.797,0.029c-0.559,0.202-1.137,0.349-1.696,0.55c-1.363,0.489-2.637,1.154-3.823,1.985
				c-0.16,0.112-0.415,0.206-0.309,0.483c0.153,0.403,0.33,0.797,0.509,1.224c0.199-0.094,0.318-0.149,0.437-0.205
				c1.743-0.835,3.582-1.358,5.481-1.681c0.185-0.031,0.387-0.057,0.567-0.019c0.918,0.196,1.848,0.361,2.744,0.637
				c1.095,0.337,2.159,0.773,3.319,1.196C25.909,23.698,26.088,23.264,26.302,22.744z M27.246,26.368
				c0.02-0.052,0.04-0.104,0.061-0.156c-0.143-0.146-0.267-0.321-0.433-0.433c-0.603-0.405-1.179-0.885-1.84-1.16
				c-1.252-0.521-2.54-0.973-3.843-1.347c-0.702-0.202-1.443-0.474-2.202-0.27c-1.385,0.371-2.776,0.726-4.137,1.174
				c-1.058,0.349-2.041,0.884-2.876,1.648c-0.139,0.128-0.246,0.291-0.452,0.541c0.324-0.018,0.496-0.008,0.66-0.04
				c1.881-0.369,3.757-0.76,5.641-1.108c0.691-0.128,1.425-0.313,2.096-0.204c2.249,0.365,4.478,0.852,6.716,1.288
				C26.837,26.339,27.043,26.346,27.246,26.368z"/>
			<path fill="#F9FBFC" d="M76.566,29.514c-1.184,0-2.294,0-3.476,0c-0.013-0.215-0.038-0.435-0.038-0.654
				c-0.003-2.055,0.007-4.111-0.008-6.166c-0.003-0.457-0.066-0.917-0.146-1.368c-0.109-0.613-0.497-0.997-1.112-1.088
				c-0.688-0.101-1.38-0.077-1.807,0.58c-0.213,0.327-0.352,0.724-0.431,1.109c-0.092,0.447-0.107,0.915-0.11,1.374
				c-0.011,1.844-0.005,3.688-0.005,5.532c0,0.209,0,0.419,0,0.667c-1.298,0-2.553,0-3.841,0c0-3.995,0-7.961,0-11.972
				c1.252,0,2.469,0,3.753,0c0.023,0.467,0.045,0.934,0.072,1.5c0.923-1.288,2.11-1.83,3.597-1.815
				c1.486,0.015,2.719,0.449,3.47,1.902c0.671-1.021,1.543-1.64,2.684-1.822c0.94-0.15,1.878-0.126,2.777,0.232
				c0.889,0.354,1.512,0.992,1.794,1.902c0.168,0.543,0.3,1.122,0.307,1.687c0.032,2.689,0.017,5.379,0.016,8.068
				c0,0.094-0.016,0.188-0.028,0.319c-1.268,0-2.523,0-3.859,0c0-0.226,0-0.43,0-0.634c0-2.017,0.007-4.034-0.005-6.051
				c-0.003-0.458-0.024-0.925-0.114-1.372c-0.164-0.817-0.56-1.159-1.302-1.226c-0.954-0.086-1.572,0.174-1.838,0.934
				c-0.204,0.585-0.321,1.228-0.334,1.849c-0.042,1.978-0.017,3.957-0.017,5.936C76.566,29.108,76.566,29.279,76.566,29.514z"/>
			<path fill="#F9FBFC" d="M46.875,17.515c1.285,0,2.528,0,3.827,0c0,0.47,0,0.94,0,1.542c0.211-0.231,0.333-0.363,0.453-0.498
				c0.739-0.833,1.672-1.301,2.778-1.312c0.721-0.008,1.462,0.044,2.161,0.209c1.427,0.338,2.001,1.44,2.229,2.775
				c0.065,0.378,0.113,0.763,0.115,1.146c0.011,2.632,0.007,5.264,0.007,7.896c0,0.057-0.015,0.114-0.03,0.218
				c-1.289,0-2.582,0-3.963,0c0-0.203,0.001-0.405,0-0.607c-0.006-2.152-0.007-4.304-0.025-6.455
				c-0.003-0.381-0.024-0.782-0.145-1.137c-0.112-0.325-0.305-0.698-0.576-0.88c-0.924-0.617-2.335-0.122-2.647,0.95
				c-0.189,0.652-0.247,1.358-0.26,2.042c-0.034,1.825-0.013,3.65-0.013,5.475c0,0.189,0,0.378,0,0.614c-1.321,0-2.593,0-3.908,0
				C46.875,25.522,46.875,21.556,46.875,17.515z"/>
			<path fill="#F9FBFC" d="M116.146,25.796c-0.385,1.475-1.194,2.593-2.494,3.271c-2.117,1.104-4.317,1.156-6.487,0.167
				c-1.465-0.668-2.354-1.897-2.771-3.427c-0.426-1.566-0.416-3.15,0.066-4.714c0.709-2.298,2.589-3.821,4.987-3.953
				c0.834-0.046,1.706-0.022,2.514,0.168c2.485,0.586,3.816,2.298,4.257,4.738c0.138,0.765,0.126,1.558,0.188,2.403
				c-2.771,0-5.45,0-8.115,0c-0.251,1.018,0.298,2.124,1.177,2.46c1.17,0.447,2.278,0.021,2.906-1.113
				C113.615,25.796,114.856,25.796,116.146,25.796z M108.139,22.202c1.457,0,2.914,0,4.369,0c0.034-1.686-1.093-2.417-2.129-2.446
				C109.226,19.724,108.138,20.6,108.139,22.202z"/>
			<path fill="#F9FBFC" d="M88.862,21.246c-1.161,0-2.328,0-3.553,0c0.093-1.078,0.496-1.972,1.259-2.698
				c0.91-0.866,2.06-1.168,3.258-1.28c1.167-0.11,2.341-0.102,3.489,0.206c1.815,0.487,2.778,1.624,2.845,3.504
				c0.067,1.899,0.047,3.8,0.07,5.701c0.005,0.422-0.01,0.851,0.064,1.263c0.063,0.345,0.243,0.669,0.372,1.003
				c0.062,0.161,0.127,0.322,0.222,0.562c-0.29,0.015-0.475,0.032-0.661,0.032c-0.96,0.002-1.92-0.015-2.88,0.006
				c-0.403,0.009-0.677-0.047-0.666-0.537c0.004-0.186-0.072-0.374-0.125-0.629c-0.18,0.137-0.339,0.253-0.493,0.375
				c-1.446,1.137-3.062,1.46-4.822,0.946c-1.322-0.386-2.145-1.439-2.273-2.812c-0.202-2.179,0.754-3.591,2.871-4.134
				c1.056-0.271,2.139-0.438,3.207-0.665c0.279-0.059,0.553-0.152,0.821-0.25c0.342-0.125,0.609-0.316,0.604-0.742
				c-0.005-0.463-0.16-0.813-0.606-1.016c-1.129-0.514-2.407-0.053-2.927,1.067C88.923,21.18,88.893,21.207,88.862,21.246z
				 M92.503,23.979c-0.881,0.22-1.696,0.419-2.508,0.63c-0.202,0.052-0.397,0.137-0.588,0.221c-0.497,0.217-0.724,0.621-0.708,1.144
				c0.017,0.558,0.261,1.018,0.792,1.234c0.98,0.399,2.631-0.075,2.883-1.41C92.486,25.205,92.464,24.587,92.503,23.979z"/>
			<path fill="#F9FBFC" d="M37.997,21.266c-1.104,0-2.179,0-3.254-0.001c-0.075,0-0.15-0.014-0.287-0.028
				c0.103-1.315,0.67-2.34,1.732-3.082c0.741-0.518,1.595-0.748,2.48-0.85c1.206-0.14,2.413-0.157,3.603,0.137
				c2.035,0.503,2.992,1.661,3.04,3.764c0.043,1.881,0.028,3.764,0.045,5.646c0.003,0.345-0.012,0.7,0.066,1.031
				c0.089,0.38,0.241,0.753,0.421,1.1c0.169,0.327,0.154,0.536-0.151,0.541c-1.244,0.019-2.489,0.008-3.763,0.008
				c-0.082-0.392-0.156-0.741-0.245-1.168c-0.222,0.175-0.409,0.326-0.599,0.473c-1.261,0.976-2.685,1.271-4.235,0.986
				c-1.844-0.338-2.875-1.725-2.781-3.65c0.084-1.715,0.896-2.796,2.547-3.302c1.003-0.307,2.056-0.452,3.084-0.68
				c0.411-0.091,0.826-0.179,1.222-0.317c0.542-0.189,0.701-0.424,0.678-0.867c-0.026-0.505-0.269-0.834-0.735-0.993
				C39.643,19.595,38.558,20.056,37.997,21.266z M41.625,23.982c-0.945,0.237-1.815,0.454-2.683,0.677
				c-0.129,0.033-0.25,0.096-0.373,0.151c-0.516,0.228-0.757,0.631-0.737,1.188c0.021,0.57,0.288,1.011,0.816,1.218
				c1.059,0.416,2.696-0.192,2.877-1.508C41.602,25.145,41.594,24.571,41.625,23.982z"/>
			<path fill="#F9FBFC" d="M104.036,27.087c0,0.824,0,1.621,0,2.453c-1.287,0.272-2.557,0.412-3.832,0.097
				c-0.91-0.225-1.555-0.786-1.729-1.73c-0.163-0.883-0.299-1.78-0.329-2.676c-0.054-1.555-0.017-3.112-0.019-4.668
				c0-0.206,0-0.412,0-0.674c-0.566,0-1.076,0-1.628,0c0-0.811,0-1.567,0-2.384c0.525,0,1.035,0,1.605,0c0-1.143,0-2.229,0-3.358
				c1.333,0,2.608,0,3.951,0c0,1.077,0,2.161,0,3.315c0.707,0,1.347,0,2.026,0c0,0.827,0,1.584,0,2.406c-0.648,0-1.29,0-1.894,0
				c-0.058,0.097-0.094,0.129-0.093,0.161c0.008,1.882-0.02,3.765,0.043,5.645c0.037,1.102,0.37,1.345,1.479,1.377
				C103.746,27.055,103.875,27.073,104.036,27.087z"/>
			<path fill="#FBC906" d="M60.071,15.151c1.213,0,2.344,0.004,3.475-0.003c0.288-0.002,0.429,0.119,0.428,0.408
				c0,0.154,0.007,0.307,0.007,0.461c0.001,4.262,0.001,8.524,0.001,12.786c0,0.742-0.002,0.744-0.728,0.744
				c-0.864,0-1.728,0-2.592-0.004c-0.589-0.002-0.615-0.02-0.617-0.617c-0.006-2.745-0.005-5.491-0.007-8.236
				c-0.001-1.651-0.004-3.302-0.003-4.953C60.035,15.569,60.055,15.402,60.071,15.151z"/>
			<path fill="#FBC906" d="M60.045,13.842c0-1.177,0.002-2.285-0.001-3.392c-0.001-0.272,0.157-0.388,0.393-0.39
				c1.052-0.009,2.105-0.017,3.157,0.009c0.129,0.003,0.36,0.213,0.362,0.331c0.02,1.09,0.001,2.18-0.011,3.271
				c-0.001,0.051-0.047,0.101-0.081,0.171C62.631,13.842,61.394,13.842,60.045,13.842z"/>
			<path fill="#F9FBFC" d="M17.467,28.355c0.003,0.852-0.68,1.531-1.543,1.534c-0.797,0.003-1.496-0.703-1.505-1.516
				c-0.008-0.823,0.718-1.546,1.546-1.541C16.769,26.837,17.465,27.543,17.467,28.355z"/>
			<path fill="#315FAB" d="M26.302,22.744c-0.214,0.52-0.393,0.954-0.557,1.35c-1.16-0.423-2.224-0.859-3.319-1.196
				c-0.895-0.276-1.825-0.441-2.744-0.637c-0.18-0.038-0.381-0.012-0.567,0.019c-1.9,0.323-3.739,0.846-5.481,1.681
				c-0.118,0.057-0.238,0.112-0.437,0.205c-0.179-0.427-0.356-0.821-0.509-1.224c-0.105-0.277,0.15-0.371,0.309-0.483
				c1.185-0.831,2.46-1.496,3.823-1.985c0.559-0.201,1.138-0.347,1.696-0.55c0.602-0.218,1.184-0.207,1.797-0.029
				c1.91,0.557,3.735,1.292,5.384,2.422c0.127,0.087,0.247,0.182,0.372,0.271C26.134,22.634,26.199,22.675,26.302,22.744z"/>
			<path fill="#315FAB" d="M27.246,26.368c-0.203-0.022-0.409-0.028-0.608-0.067c-2.238-0.436-4.467-0.923-6.716-1.288
				c-0.671-0.109-1.405,0.076-2.096,0.204c-1.884,0.348-3.761,0.74-5.641,1.108c-0.164,0.032-0.336,0.022-0.66,0.04
				c0.206-0.249,0.312-0.413,0.452-0.541c0.834-0.764,1.818-1.299,2.876-1.648c1.36-0.448,2.752-0.803,4.137-1.174
				c0.759-0.203,1.5,0.068,2.202,0.27c1.303,0.374,2.591,0.826,3.843,1.347c0.66,0.275,1.237,0.755,1.84,1.16
				c0.166,0.112,0.29,0.287,0.433,0.433C27.286,26.263,27.266,26.316,27.246,26.368z"/>
			<path fill="#315FAB" d="M108.139,22.202c-0.001-1.601,1.087-2.478,2.24-2.446c1.035,0.029,2.163,0.76,2.129,2.446
				C111.053,22.202,109.596,22.202,108.139,22.202z"/>
			<path fill="#315FAB" d="M92.503,23.979c-0.039,0.609-0.017,1.227-0.129,1.82c-0.252,1.335-1.903,1.809-2.883,1.41
				c-0.531-0.216-0.775-0.676-0.792-1.234c-0.016-0.523,0.211-0.927,0.708-1.144c0.192-0.084,0.387-0.168,0.588-0.221
				C90.807,24.398,91.622,24.199,92.503,23.979z"/>
			<path fill="#315FAB" d="M41.625,23.982c-0.031,0.589-0.023,1.163-0.1,1.725c-0.181,1.317-1.818,1.925-2.877,1.508
				c-0.528-0.208-0.795-0.648-0.816-1.218c-0.021-0.556,0.221-0.96,0.737-1.188c0.123-0.054,0.244-0.118,0.373-0.151
				C39.81,24.436,40.68,24.22,41.625,23.982z"/>
		</g>
	</g>
</g>
</svg>
