<?xml version="1.0" encoding="utf-8"?>
<!-- Generator: Adobe Illustrator 21.0.0, SVG Export Plug-In . SVG Version: 6.00 Build 0)  -->
<svg version="1.1" xmlns="http://www.w3.org/2000/svg" xmlns:xlink="http://www.w3.org/1999/xlink" x="0px" y="0px"
	 viewBox="0 0 125 40" enable-background="new 0 0 125 40" xml:space="preserve">
<g id="bg" display="none">
	<rect display="inline" fill="#FFFFFF" width="125" height="40"/>
</g>
<g id="icons">
	<g>
		<rect x="0" fill="#FDD100" width="114.685" height="40"/>
		<g>
			<polygon fill="#D20210" points="13.07,7.12 6.614,7.12 6.899,9.811 8.851,9.811 10.338,23.249 13.207,23.249 11.72,9.811 
				13.355,9.811 			"/>
			<polygon fill="#D20210" points="38.893,20.762 38.383,16.299 40.527,16.299 40.315,14.072 38.129,14.072 37.589,9.349 
				39.705,9.349 39.491,7.12 37.335,7.12 34.842,7.12 34.466,7.12 36.309,23.249 36.775,23.249 39.177,23.249 41.425,23.249 
				41.211,20.762 			"/>
			<path fill="#D20210" d="M21.139,9.349c-0.189-1.792-1.456-2.227-2.183-2.227c-0.728,0-1.867,0-2.435,0h-0.367
				c-1.819,0-2.08,1.217-1.954,2.227l1.285,11.251c0.119,1.042,0.848,2.65,2.434,2.65h0.445c0,0,1.227,0,2.207,0
				c1.55,0,2.058-1.002,1.93-2.332C22.374,19.589,21.33,11.139,21.139,9.349z M18.84,20.762c-0.485,0-0.77-0.129-0.834-0.639
				L16.827,9.811c-0.031-0.271,0.092-0.462,0.663-0.462c0.571,0,0.822,0.209,0.856,0.462c0.033,0.253,1.254,10.148,1.275,10.506
				C19.641,20.676,19.324,20.762,18.84,20.762z"/>
			<path fill="#D20210" d="M81.954,9.349c-0.189-1.792-1.456-2.227-2.183-2.227s-1.867,0-2.435,0H76.97
				c-1.819,0-2.08,1.217-1.954,2.227L76.3,20.599c0.119,1.042,0.848,2.65,2.434,2.65h0.445c0,0,1.227,0,2.207,0
				c1.55,0,2.058-1.002,1.93-2.332C83.188,19.589,82.144,11.139,81.954,9.349z M79.655,20.762c-0.485,0-0.77-0.129-0.834-0.639
				L77.643,9.811c-0.031-0.271,0.092-0.462,0.663-0.462c0.57,0,0.823,0.209,0.856,0.462c0.033,0.253,1.254,10.148,1.275,10.506
				C80.456,20.676,80.14,20.762,79.655,20.762z"/>
			<path fill="#D20210" d="M107.732,20.917c-0.057-0.591-0.294-2.588-0.557-4.781c-0.085-0.708-0.724-1.051-2.576-1.85
				c-1.853-0.798-2.109-0.958-2.203-1.529l-0.336-2.948c-0.031-0.271,0.092-0.462,0.663-0.462c0.571,0,0.823,0.209,0.856,0.462
				c0.011,0.09,0.379,2.999,0.379,2.999h2.821c0,0-0.342-2.87-0.404-3.462c-0.189-1.792-1.456-2.227-2.183-2.227
				c-0.728,0-1.867,0-2.435,0h-0.37c-1.819,0-2.08,1.217-1.954,2.227l0.483,4.723c0.137,1.344,1.075,1.398,2.449,2.036
				c1.374,0.639,2.012,0.926,2.186,1.627c0,0,0.297,2.469,0.302,2.582c0.021,0.359-0.295,0.445-0.78,0.445
				c-0.485,0-0.77-0.129-0.834-0.639l-0.252-2.198l-2.678,0.003l0.331,3.225c0.119,1.042,0.684,2.096,2.27,2.096h0.687
				c0,0,1.227,0,2.207,0C107.352,23.249,107.858,22.247,107.732,20.917z"/>
			<path fill="#D20210" d="M98.304,9.349c-0.189-1.792-2.086-2.227-2.814-2.227s-2.435,0-2.435,0h-0.366h-1.6l1.867,16.129
				c0,0,3.797,0,4.78,0c1.55,0,2.058-1.002,1.93-2.332C99.538,19.589,98.493,11.139,98.304,9.349z M96.005,20.762
				c-0.485,0-0.77-0.129-0.834-0.639L93.992,9.811c-0.031-0.271,0.092-0.462,0.663-0.462s0.823,0.209,0.856,0.462
				c0.033,0.253,1.254,10.148,1.275,10.506C96.806,20.676,96.49,20.762,96.005,20.762z"/>
			<path fill="#D20210" d="M33.39,7.12h-2.742l1.491,13.058c0.055,0.454-0.177,0.584-0.557,0.584c-0.38,0-0.847,0.059-0.934-0.709
				L29.172,7.12H26.43l1.485,12.997c0.02,0.431,0.02,0.644-0.592,0.644s-0.9-0.033-1.005-0.958L24.87,7.12h-2.661l1.538,13.46
				c0.161,1.108,0.603,2.67,2.924,2.67c0,0,1.413,0,1.477,0c0.654,0,1.371-0.527,1.562-1.013c0,0,0.423,1.013,1.836,1.013
				c0.759,0,0.95,0,1.139,0c0.928,0,2.453-0.869,2.198-3.113L33.39,7.12z"/>
			<polygon fill="#D20210" points="65.349,20.762 64.839,16.299 66.984,16.299 66.771,14.072 64.585,14.072 64.046,9.349 
				66.16,9.349 65.947,7.12 63.792,7.12 61.297,7.12 60.921,7.12 62.764,23.249 63.231,23.249 65.633,23.249 67.88,23.249 
				67.667,20.762 			"/>
			<path fill="#D20210" d="M47.564,15.185c0,0,0.822-0.722,0.759-1.577c-0.064-0.855-0.317-3.608-0.475-4.494
				c-0.158-0.886-0.822-1.994-2.215-1.994c-0.791,0-5.106,0-5.106,0l1.843,16.129h2.869l-0.776-6.788c0,0,0.663,0,0.979,0
				c0.317,0,0.633,0.311,0.664,0.691c0.031,0.38,0.697,6.097,0.697,6.097h2.722c0,0-0.664-5.591-0.791-6.604
				C48.608,15.633,47.564,15.185,47.564,15.185z M45.307,14.07c-0.285,0-1.115,0-1.115,0l-0.54-4.723c0,0,0.748,0,1.04,0
				c0.413,0,0.513,0.348,0.594,0.906c0.073,0.51,0.267,1.952,0.301,2.623C45.616,13.484,45.591,14.07,45.307,14.07z"/>
			<path fill="#D20210" d="M59.618,15.185c0,0,0.822-0.722,0.759-1.577c-0.064-0.855-0.317-3.608-0.475-4.494
				C59.744,8.228,59.08,7.12,57.688,7.12c-0.791,0-5.106,0-5.106,0l1.843,16.129h2.869l-0.776-6.788c0,0,0.663,0,0.979,0
				s0.633,0.311,0.664,0.691c0.031,0.38,0.697,6.097,0.697,6.097h2.722c0,0-0.664-5.591-0.791-6.604
				C60.663,15.633,59.618,15.185,59.618,15.185z M57.362,14.07c-0.285,0-1.115,0-1.115,0l-0.54-4.723c0,0,0.748,0,1.04,0
				c0.413,0,0.513,0.348,0.594,0.906c0.073,0.51,0.267,1.952,0.301,2.623C57.672,13.484,57.647,14.07,57.362,14.07z"/>
			<path fill="#D20210" d="M89.746,15.185c0,0,0.822-0.722,0.759-1.577C90.441,12.753,90.188,10,90.03,9.114
				c-0.158-0.886-0.823-1.994-2.215-1.994c-0.791,0-5.106,0-5.106,0l1.843,16.129h2.869l-0.776-6.788c0,0,0.663,0,0.979,0
				c0.317,0,0.633,0.311,0.664,0.691c0.031,0.38,0.697,6.097,0.697,6.097h2.722c0,0-0.664-5.591-0.791-6.604
				C90.79,15.633,89.746,15.185,89.746,15.185z M87.489,14.07c-0.285,0-1.115,0-1.115,0l-0.54-4.723c0,0,0.748,0,1.04,0
				c0.413,0,0.513,0.348,0.594,0.906c0.073,0.51,0.267,1.952,0.301,2.623C87.798,13.484,87.773,14.07,87.489,14.07z"/>
			<path fill="#D20210" d="M74.796,17.992h-2.636c0.154,1.278,0.266,2.219,0.271,2.325c0.021,0.359-0.295,0.445-0.78,0.445
				s-0.77-0.129-0.834-0.639L69.64,9.811c-0.031-0.271,0.092-0.462,0.663-0.462c0.57,0,0.823,0.209,0.856,0.462
				c0.011,0.085,0.155,1.255,0.343,2.784h2.648c-0.174-1.456-0.319-2.682-0.379-3.246c-0.189-1.792-1.275-2.227-2.003-2.227
				c-0.728,0-1.867,0-2.435,0h-0.369c-1.819,0-2.08,1.217-1.954,2.227l1.285,11.251c0.119,1.042,0.848,2.65,2.434,2.65h0.445
				c0,0,1.227,0,2.207,0c1.55,0,1.877-1.002,1.75-2.332C75.092,20.502,74.962,19.384,74.796,17.992z"/>
		</g>
		<rect x="6.614" y="25.57" fill="#D70010" width="101.136" height="7.342"/>
		<polygon fill="#FFFFFF" points="37.436,26.597 36.27,26.597 36.27,31.655 37.469,31.655 37.469,28.25 41.362,31.655 
			42.548,31.655 42.548,26.597 41.425,26.597 41.425,30.033 		"/>
		<polygon fill="#FFFFFF" points="74.722,26.597 73.554,26.597 73.554,31.655 74.753,31.655 74.753,28.25 78.646,31.655 
			79.832,31.655 79.832,26.597 78.708,26.597 78.708,30.033 		"/>
		<rect x="63.779" y="26.597" fill="#FFFFFF" width="1.475" height="5.058"/>
		<polygon fill="#FFFFFF" points="52.131,30.602 52.131,26.597 50.886,26.597 50.886,31.655 51.509,31.655 52.131,31.655 
			56.203,31.655 56.203,30.602 		"/>
		<polygon fill="#FFFFFF" points="93.419,27.511 93.419,26.597 89.347,26.597 88.778,26.597 88.102,26.597 88.102,31.655 
			88.724,31.655 89.347,31.655 93.419,31.655 93.419,30.602 89.347,30.602 89.347,29.536 91.709,29.536 91.709,28.523 
			89.347,28.523 89.347,27.511 		"/>
		<g>
			<path fill="#FFFFFF" d="M27.374,31.709h-4.558c-0.349,0-0.633-0.283-0.633-0.633v-3.797c0-0.349,0.283-0.633,0.633-0.633h4.558
				c0.349,0,0.633,0.283,0.633,0.633v3.797C28.006,31.426,27.723,31.709,27.374,31.709z M23.45,30.444h3.291v-2.531H23.45V30.444z"
				/>
		</g>
	</g>
</g>
</svg>
