<?xml version="1.0" encoding="utf-8"?>
<!-- Generator: Adobe Illustrator 21.0.0, SVG Export Plug-In . SVG Version: 6.00 Build 0)  -->
<svg version="1.1" xmlns="http://www.w3.org/2000/svg" xmlns:xlink="http://www.w3.org/1999/xlink" x="0px" y="0px"
	 viewBox="0 0 125 40" enable-background="new 0 0 125 40" xml:space="preserve">
<g id="bg" display="none">
	<rect display="inline" fill="#FFFFFF" width="125" height="40"/>
</g>
<g id="icons">
	<g>
		<g>
			<g>
				<g>
					<path d="M10.582,17.652c0-0.947,0-4.747,0-6.013S9.634,8,6.002,8C3.87,8,0.949,9.106,0.395,11.875
						c0.08,0.317,2.606,0.634,2.764,0.555c0.237,0,0.396-1.978,2.369-1.978c1.5,0,1.975,1.503,1.975,1.818c0,0.317,0,1.426,0,1.426
						S0,13.063,0,18.366c0,2.609,2.053,3.797,3.474,3.797c1.422,0,2.606-0.316,4.264-1.898c0,0,1.421,1.662,1.58,1.74
						c0.157,0.079,0.315,0.079,0.71-0.236c0.395-0.315,1.658-1.504,1.738-1.584c0.079-0.078,0.236-0.314,0-0.555
						C11.528,19.474,10.582,18.603,10.582,17.652z M7.502,17.258c0,1.187-1.421,2.61-2.37,2.61c-0.947,0-1.737-0.791-1.737-1.979
						c0-2.294,2.685-2.848,3.316-2.848s0.79,0,0.79,0S7.502,16.546,7.502,17.258z"/>
					<path d="M43.27,17.652c0-0.947,0-4.747,0-6.013S42.322,8,38.69,8c-2.131,0-5.054,1.106-5.606,3.875
						c0.08,0.317,2.605,0.634,2.765,0.555c0.236-0.079,0.313-1.978,2.368-1.978c1.5,0,1.975,1.503,1.975,1.818
						c0,0.317,0,1.426,0,1.426s-7.501-0.634-7.501,4.668c0,2.609,2.052,3.798,3.473,3.798c1.423,0,2.607-0.315,4.265-1.897
						c0,0,1.421,1.66,1.578,1.738c0.161,0.08,0.317,0.08,0.712-0.236c0.395-0.314,1.66-1.502,1.736-1.582
						c0.082-0.078,0.238-0.315,0-0.556C44.217,19.474,43.27,18.603,43.27,17.652z M40.19,17.258c0,1.187-1.422,2.61-2.369,2.61
						s-1.737-0.791-1.737-1.979c0-2.294,2.684-2.848,3.316-2.848c0.631,0,0.789,0,0.789,0S40.19,16.546,40.19,17.258z"/>
					<path d="M53.534,17.89c-1.419-0.315-2.843-0.158-3.001-0.158c-0.156,0,5.054-7.357,5.054-7.357v-1.82
						c0-0.157-0.078-0.238-0.234-0.238h-8.609c-0.157,0-0.237,0.081-0.237,0.238v2.216c0,0.157,0.08,0.237,0.237,0.237h4.58
						c0,0-4.975,7.042-5.131,7.359c-0.161,0.315-0.161,0.711-0.161,0.868c0,0.158,0,1.505,0,1.82c0,0.315,0.317,0.633,0.872,0.237
						c0.473-0.317,1.658-1.028,4.184-1.028c2.526,0,3.71,1.028,4.026,1.188c0.239,0.156,0.63,0.079,0.63-0.316
						c0-0.395,0-1.898,0-2.058C55.743,18.998,54.877,18.206,53.534,17.89z"/>
					<path d="M76.671,8.158c-2.133,0-2.607,1.503-2.922,1.978c-0.08,0.159-0.238,0.318-0.396,0.318V8.792
						c0-0.159-0.078-0.238-0.232-0.238h-2.605c-0.156,0-0.238,0.08-0.238,0.238v12.977c0,0.158,0.082,0.236,0.238,0.236h2.605
						c0.154,0,0.232-0.078,0.232-0.236v-7.438c0-1.899,0.551-3.165,1.977-3.165c1.422,0,1.656,1.583,1.656,2.294v8.311
						c0,0.158,0.08,0.235,0.238,0.235h2.604c0.157,0,0.237-0.077,0.237-0.235V13.46C80.144,9.583,78.724,8.158,76.671,8.158z"/>
					<path d="M27.004,8.158c-2.132,0-2.684,1.029-3.157,1.661c-0.236,0.316-0.396,0.556-0.553,0.713
						c-0.553-1.74-1.658-2.374-3.081-2.374c-2.131,0-2.604,1.503-2.92,1.978c-0.08,0.159-0.237,0.318-0.395,0.318V8.792
						c-0.079-0.159-0.158-0.317-0.316-0.317h-2.605c-0.157,0-0.237,0.079-0.237,0.237v12.977c0,0.158,0.08,0.238,0.237,0.238h2.605
						c0.158,0,0.237-0.08,0.237-0.238v-7.438c0-1.897,0.553-3.165,1.975-3.165c1.42,0,1.658,1.583,1.658,2.296v8.309
						c0,0.158,0.079,0.238,0.237,0.238h2.606c0.156,0,0.236-0.08,0.236-0.238v-7.282c0-2.532,0.71-3.244,1.895-3.244
						c1.184,0,1.659,1.106,1.659,2.294v8.31c0,0.158,0.078,0.236,0.236,0.236h2.684c0.158,0,0.236-0.078,0.236-0.236
						c0,0,0-9.497,0-10.684C30.242,9.898,29.138,8.158,27.004,8.158z"/>
					<path d="M62.534,8.158c-1.418,0-5.446,1.029-5.446,6.964c0,5.381,3.001,7.199,5.446,7.199c2.447,0,5.609-2.137,5.609-7.199
						C68.144,10.059,65.3,8.158,62.534,8.158z M62.616,19.79c-1.344,0-2.134-1.424-2.134-4.905c0-3.482,1.186-4.353,2.212-4.353
						c1.659,0,2.131,1.979,2.131,4.747C64.747,18.129,63.958,19.79,62.616,19.79z"/>
				</g>
			</g>
			<path fill="#FF9900" d="M32.768,29.127c-9.159,0-17.213-3.167-21.004-5.696c-0.315-0.158-0.631,0.236-0.394,0.476
				c0.236,0.315,8.369,8.229,21.003,8.229c7.105,0,13.581-2.296,17.687-5.539c0.236-0.316-0.317-1.027-0.79-0.789
				C48.796,26.042,42.638,29.127,32.768,29.127z"/>
			<path fill="#FF9900" d="M53.77,23.272c-0.158-0.479-4.658-1.426-7.817,0.947c-0.156,0.156-0.078,0.316,0.239,0.316
				c0.314,0,5.131-0.715,5.685,0.156c0.313,0.634,0,2.216-0.632,3.875c-0.476,1.269-0.712,1.74-0.554,1.822
				c0.159,0.078,0.868-0.314,2.131-2.373C54.088,26.042,53.929,23.588,53.77,23.272z"/>
		</g>
		<path fill="#7F7F7F" d="M124.997,19.185c0,1.527-1.237,2.768-2.767,2.768H88.258c-1.526,0-2.766-1.238-2.766-2.768v-8.554
			c0-1.528,1.237-2.767,2.766-2.767h33.975c1.527,0,2.767,1.238,2.767,2.767L124.997,19.185L124.997,19.185z"/>
		<g>
			<g>
				<g>
					<path fill="#FFFFFF" d="M107.962,10.589c-0.308,0-2.216,0-2.216,0v8.64c0,0,2.027,0,2.236,0c0.687,0,1.838-0.499,1.838-1.817
						c0-1.32,0-4.588,0-4.904C109.82,11.653,109.282,10.589,107.962,10.589z M108.7,17.175c0,0.552-0.368,0.941-0.904,0.941
						c-0.266,0-0.506,0-0.682,0v-6.415c0.289,0,0.594,0,0.699,0c0.533,0,0.887,0.343,0.887,0.945
						C108.7,13.248,108.7,16.807,108.7,17.175z"/>
				</g>
			</g>
			<path fill="#FFFFFF" d="M103.181,18.117v-0.002c-0.145,0-0.305,0-0.485,0c-0.536,0-0.904-0.389-0.904-0.941
				c0-0.368,0-3.927,0-4.529s0.354-0.945,0.887-0.945c0.081,0,0.282,0,0.502,0c0.065,0,0.131,0,0.197,0h1.368v-1.112
				c0,0-1.908,0-2.216,0c-1.32,0-1.858,1.064-1.858,1.919c0,0.316,0,3.584,0,4.904c0,1.318,1.151,1.817,1.838,1.817
				c0.209,0,2.236,0,2.236,0v-1.111H103.181z"/>
		</g>
	</g>
</g>
</svg>
