<?xml version="1.0" encoding="utf-8"?>
<!-- Generator: Adobe Illustrator 20.1.0, SVG Export Plug-In . SVG Version: 6.00 Build 0)  -->
<svg version="1.1" id="logos" xmlns="http://www.w3.org/2000/svg" xmlns:xlink="http://www.w3.org/1999/xlink" x="0px" y="0px"
	 viewBox="0 0 125 40" enable-background="new 0 0 125 40" xml:space="preserve">
<g>
	<path d="M92.469,17.806c-2.577-0.281-3.965-0.652-3.965-1.786c0-1.139,1.667-1.662,3.227-1.662c2.368,0,3.23,1.278,3.265,1.328
		l1.063-0.732c-0.049-0.072-1.237-1.769-4.329-1.769c-3.331,0-4.518,1.465-4.518,2.836c0,2.162,2.691,2.62,5.035,2.876
		c1.049,0.114,2.816,0.585,2.868,1.693c0.013,0.272-0.043,0.67-0.384,1.027c-0.524,0.549-1.562,0.938-3.001,0.938
		c-2.941,0-3.763-1.73-3.793-1.792l-1.176,0.532c0.045,0.1,1.154,2.331,4.969,2.331c1.61,0,3.15-0.296,3.935-1.118
		c0.511-0.536,0.774-1.239,0.739-1.979C96.355,19.443,95.698,18.158,92.469,17.806z"/>
	<path d="M5.707,17.806c-2.577-0.281-3.965-0.652-3.965-1.786c0-1.139,1.667-1.662,3.227-1.662c2.368,0,3.23,1.278,3.265,1.328
		l1.063-0.732c-0.049-0.072-1.237-1.769-4.329-1.769c-3.331,0-4.518,1.465-4.518,2.836c0,2.162,2.691,2.62,5.035,2.876
		c1.049,0.114,2.816,0.585,2.868,1.693c0.013,0.272-0.043,0.67-0.384,1.027c-0.524,0.549-1.562,0.938-3.001,0.938
		c-2.941,0-3.763-1.73-3.793-1.792L0,21.293c0.045,0.1,1.154,2.331,4.969,2.331c1.61,0,3.15-0.296,3.935-1.118
		c0.511-0.536,0.774-1.239,0.739-1.979C9.593,19.443,8.935,18.158,5.707,17.806z"/>
	<path d="M15.127,16.235c-2.37,0-4.299,1.552-4.299,3.651c0,2.098,1.928,3.653,4.299,3.653c2.37,0,4.298-1.555,4.298-3.653
		C19.426,17.787,17.497,16.235,15.127,16.235z M15.127,22.553c-1.658,0-3.008-1.281-3.008-2.667c0-1.386,1.349-2.614,3.008-2.614
		c1.658,0,3.007,1.227,3.007,2.614C18.135,21.271,16.785,22.553,15.127,22.553z"/>
	<path d="M110.868,16.235c-2.37,0-4.299,1.552-4.299,3.651c0,2.098,1.928,3.653,4.299,3.653c2.37,0,4.298-1.555,4.298-3.653
		C115.166,17.787,113.238,16.235,110.868,16.235z M110.868,22.553c-1.658,0-3.008-1.281-3.008-2.667
		c0-1.386,1.349-2.614,3.008-2.614c1.658,0,3.007,1.227,3.007,2.614C113.875,21.271,112.526,22.553,110.868,22.553z"/>
	<path d="M24.785,16.235c-1.105,0-2.152,0.792-2.78,1.33V16.25l-1.252,0.039v7.249h1.291v-4.584
		c0.257-0.407,1.314-1.684,2.741-1.684c1.839,0,2.444,1.539,2.444,2.074v4.194h1.291v-4.194
		C28.52,18.073,27.279,16.235,24.785,16.235z"/>
	<polygon points="47.869,18.254 43.625,13.245 41.956,13.245 41.956,23.218 43.37,23.218 43.37,14.938 47.869,19.946 52.367,14.938 
		52.367,23.218 53.782,23.218 53.782,13.245 52.112,13.245 	"/>
	<path d="M61.573,20.619c-0.255,0.696-1.02,2.041-2.609,2.041s-2.609-1.067-2.609-2.272c0-1.206-0.023-3.896-0.023-3.896H55.08
		c0,0,0,2.991,0,3.988c0,0.997,0.812,3.084,3.525,3.084c1.716,0,3.038-1.345,3.038-1.345v1.345h1.206v-7.072h-1.275V20.619z"/>
	<path d="M67.672,19.436c-1.581-0.084-2.359-0.574-2.356-1.148c0.003-0.574,0.734-1.148,2.009-1.148
		c1.692,0,2.504,0.765,2.504,0.765l0.626-0.719c0,0-1.252-0.904-3.038-0.904c-1.786,0-3.293,0.783-3.293,2.084
		s1.6,1.789,3.293,1.927c1.136,0.093,2.249,0.417,2.319,1.043c0.07,0.626-0.557,1.275-2.272,1.275c-2.064,0-2.945-1.113-2.945-1.113
		l-0.719,0.742c0,0,1.136,1.322,3.617,1.322c2.481,0,3.432-1.164,3.432-2.249C70.849,20.339,69.691,19.544,67.672,19.436z"/>
	<rect x="72.101" y="16.491" width="1.299" height="7.072"/>
	<ellipse cx="72.773" cy="14.23" rx="0.928" ry="0.754"/>
	<path d="M79.123,22.552c-1.676,0-3.036-1.176-3.036-2.628c0-1.451,1.359-2.628,3.036-2.628c0.863,0,1.641,0.313,2.193,0.814
		l0.777-0.817c-0.786-0.597-1.834-0.966-2.989-0.966c-2.433,0-4.406,1.62-4.406,3.617s1.973,3.617,4.406,3.617
		c1.226,0,2.333-0.411,3.132-1.075l-0.929-0.743C80.755,22.242,79.981,22.552,79.123,22.552z"/>
	<polygon points="33.193,22.22 30.624,16.491 29.199,16.491 32.525,23.303 30.744,26.817 32.191,26.817 37.424,16.491 
		35.976,16.491 	"/>
	<path d="M102.126,16.329c-1.568,0-2.593,0.736-3.046,1.309v-4.161h-1.266v10.087h1.266v-4.502c0.684-1.284,1.885-1.665,2.684-1.665
		c1.235,0,2.412,0.694,2.412,1.93v4.237h1.176v-4.332C105.353,17.935,104.116,16.329,102.126,16.329z"/>
	<path d="M120.922,16.235c-1.441,0-2.707,0.876-3.433,1.905v-1.621h-1.144v10.24h1.144v-4.871c0.726,1.011,1.992,1.651,3.433,1.651
		c2.249,0,4.078-1.555,4.078-3.653C125,17.787,123.17,16.235,120.922,16.235z M120.782,22.68c-1.654,0-3-1.312-3-2.732
		c0-1.42,1.346-2.677,3-2.677c1.654,0,2.999,1.257,2.999,2.677C123.781,21.367,122.436,22.68,120.782,22.68z"/>
</g>
<rect y="0" fill="none" width="125" height="40"/>
</svg>
