<?xml version="1.0" encoding="utf-8"?>
<!-- Generator: Adobe Illustrator 21.0.0, SVG Export Plug-In . SVG Version: 6.00 Build 0)  -->
<svg version="1.1" xmlns="http://www.w3.org/2000/svg" xmlns:xlink="http://www.w3.org/1999/xlink" x="0px" y="0px"
	 viewBox="0 0 125 40" enable-background="new 0 0 125 40" xml:space="preserve">
<g id="bg" display="none">
	<rect display="inline" fill="#FFFFFF" width="125" height="40"/>
</g>
<g id="icons">
	<g>
		<g id="BCyBzD_1_">
			<g>
				<path fill="#033C6D" d="M29.304,16.472c0.925,0,1.637,0,2.423,0c0.041,0.387,0.103,0.715,0.105,1.043
					c0.01,1.282,0.002,2.565,0.001,3.847c0,0.299-0.018,0.6,0.004,0.897c0.072,0.971,0.542,1.537,1.227,1.503
					c0.694-0.035,1.11-0.591,1.119-1.594c0.017-1.831,0.005-3.662,0.005-5.589c0.866,0,1.647,0,2.517,0
					c0.027,0.334,0.083,0.662,0.074,0.99c-0.05,1.96-0.065,3.923-0.189,5.879c-0.108,1.706-1.722,2.925-3.797,2.836
					c-2.109-0.091-3.469-1.489-3.487-3.489C29.29,20.709,29.304,18.623,29.304,16.472z"/>
				<path fill="#033C6D" d="M49.582,16.631c0.73,0,1.359,0,2.138,0c1.188,3.09,2.384,6.203,3.623,9.427c-0.972,0-1.809,0-2.684,0
					c-0.194-0.371-0.386-0.74-0.575-1.104c-1.013,0-1.981,0-2.992,0c-0.217,0.403-0.413,0.765-0.603,1.118c-0.863,0-1.661,0-2.665,0
					C47.107,22.849,48.342,19.747,49.582,16.631z M51.351,22.772c-0.239-0.658-0.44-1.212-0.738-2.033
					c-0.31,0.852-0.509,1.402-0.739,2.033C50.418,22.772,50.817,22.772,51.351,22.772z"/>
				<path fill="#033C6D" d="M72.851,26.087c-1.006,0-1.806,0-2.65,0c-0.2-0.371-0.399-0.738-0.623-1.154c-0.953,0-1.922,0-2.951,0
					c-0.192,0.352-0.39,0.716-0.619,1.138c-0.816,0-1.651,0-2.681,0c1.283-3.213,2.517-6.304,3.762-9.425c0.714,0,1.34,0,2.15,0
					C70.404,19.693,71.596,22.807,72.851,26.087z M68.251,21.022c-0.088,0.007-0.177,0.014-0.265,0.021
					c-0.204,0.574-0.408,1.148-0.638,1.793c0.559,0,0.995,0,1.544,0C68.655,22.163,68.453,21.593,68.251,21.022z"/>
				<path fill="#033C6D" d="M60.976,16.607c0.964,0,1.844,0,2.883,0c-0.372,0.664-0.679,1.211-0.985,1.758
					c-0.145,0.26-0.285,0.524-0.434,0.783c-0.616,1.071-1.434,2.078-1.793,3.228c-0.344,1.102-0.211,2.353-0.292,3.608
					c-0.677,0.331-1.439,0.041-2.341,0.197c-0.041-0.722-0.156-1.345-0.094-1.949c0.12-1.163-0.215-2.166-0.798-3.146
					c-0.717-1.207-1.379-2.447-2.053-3.679c-0.134-0.246-0.215-0.521-0.339-0.83c0.973,0,1.848,0,2.786,0
					c0.573,0.964,1.133,1.907,1.742,2.932C59.846,18.517,60.385,17.606,60.976,16.607z"/>
				<path fill="#033C6D" d="M21.498,26.124c0-0.845,0-1.429,0-1.996c0.802-0.314,1.721,0.282,2.449-0.615
					c-0.063-0.223-0.086-0.571-0.25-0.83c-0.272-0.429-0.667-0.778-0.95-1.201c-0.376-0.562-0.805-1.125-1.016-1.753
					c-0.485-1.445,0.389-2.909,1.896-3.151c0.817-0.132,1.672-0.023,2.593-0.023c0,0.692,0,1.311,0,1.992
					c-0.587,0.105-1.276-0.396-1.859,0.404c0.125,0.281,0.245,0.672,0.458,1.004c0.276,0.429,0.623,0.812,0.943,1.211
					c0.614,0.766,0.873,1.629,0.805,2.617c-0.088,1.272-0.835,2.196-2.109,2.323C23.498,26.201,22.522,26.124,21.498,26.124z"/>
				<path fill="#033C6D" d="M17.646,18.732c0,2.507,0,4.891,0,7.335c-0.878,0-1.673,0-2.597,0c0-2.437,0-4.853,0-7.328
					c-0.569-0.056-1.019-0.1-1.519-0.149c0-0.683,0-1.302,0-1.976c1.888,0,3.705,0,5.576,0c0,0.685,0,1.3,0,1.979
					C18.628,18.639,18.217,18.678,17.646,18.732z"/>
				<path fill="#033C6D" d="M39.095,16.576c1.957,0,3.741,0,5.618,0c0,0.649,0,1.266,0,2.019c-0.412,0.034-0.861,0.07-1.464,0.119
					c0,2.424,0,4.867,0,7.361c-0.906,0-1.663,0-2.594,0c-0.06-1.189-0.015-2.41-0.023-3.627c-0.008-1.227-0.002-2.454-0.002-3.739
					c-0.511-0.033-0.926-0.06-1.387-0.09C38.928,17.984,39.097,17.326,39.095,16.576z"/>
				<path fill="#033C6D" d="M9.523,20.05c0.861,0.802,1.131,1.706,1.087,2.735c-0.027,0.639-0.009,1.279-0.02,1.919
					c-0.016,0.882-0.49,1.435-1.301,1.689c-0.523,0.163-1.065,0.29-1.607,0.36c-1.698,0.218-3.414,0.315-5.075-0.154
					c-1.516-0.427-3.099-1.552-2.464-3.923c0.142-0.529,0.216-1.075,0.346-1.608c0.21-0.86,0.855-1.246,1.655-1.389
					c1.086-0.195,2.179-0.457,3.273-0.477c1.088-0.02,2.181,0.224,3.478,0.376c0.295-0.361,0.729-0.872,1.143-1.399
					c0.406-0.516,0.467-1.299,1.217-1.589c0.471,0.313,0.472,0.632,0.131,1.051C10.77,18.399,10.188,19.186,9.523,20.05z
					 M8.88,20.836c-2.209-1.032-4.424-0.62-6.639-0.128c-0.751,0.167-0.954,0.797-1.127,1.413c-0.09,0.322-0.065,0.677-0.086,1.017
					C0.94,24.607,1.37,25.22,2.817,25.653c1.922,0.575,3.845,0.594,5.785,0.052c0.577-0.161,0.92-0.453,0.915-1.044
					C9.506,23.347,9.566,22.015,8.88,20.836z"/>
				<path fill="#033C6D" d="M4.862,15.77c-0.801,0.99-1.489,1.841-2.15,2.657c-0.752-0.141-0.736-0.707-0.761-1.124
					c-0.089-1.468,0.408-2.811,0.962-4.236c0.359,0.15,0.613,0.255,0.983,0.409c-0.354,1.084-0.692,2.116-1.114,3.407
					c1.107-1.094,1.89-2.158,3.067-2.831c0.46,1.03-0.288,1.911-0.089,2.952c0.717-0.69,1.385-1.333,2.172-2.091
					c0.101,0.47,0.159,0.74,0.224,1.043c0.333-0.061,0.649-0.119,0.853-0.156c0.377,0.421,0.689,0.769,1.003,1.12
					c-0.47,0.683-0.917,0.37-1.374-0.076c-0.267,0.116-0.528,0.229-0.846,0.367c-0.21-0.189-0.42-0.377-0.651-0.585
					c-0.509,0.559-1.014,1.113-1.525,1.675C4.57,17.663,5.116,16.691,4.862,15.77z"/>
				<path fill="#033C6D" d="M4.127,24.561c-0.352-0.386-0.625-0.545-0.641-0.727c-0.063-0.715-0.075-1.438-0.044-2.156
					c0.014-0.334,0.204-0.376,0.986-0.298C4.338,22.325,4.249,23.271,4.127,24.561z"/>
				<path fill="#033C6D" d="M7.419,24.194c-0.346-0.091-0.615-0.162-0.986-0.259c0.113-0.911,0.22-1.768,0.33-2.655
					c0.242,0,0.401,0,0.656,0C7.419,22.194,7.419,23.098,7.419,24.194z"/>
				<path fill="#033C6D" d="M6.239,21.971c-0.463,0.852-1.007,0.455-1.583,0.44C5.02,21.585,5.02,21.585,6.239,21.971z"/>
				<path fill="#033C6D" d="M6.06,24.623c0.733,0,1.208,0,1.733,0C7.219,25.438,7.063,25.451,6.06,24.623z"/>
				<path fill="#033C6D" d="M4.603,25.244c-0.503,0.096-0.986,0.266-1.337-0.293C4.163,24.534,4.163,24.534,4.603,25.244z"/>
				<path fill="#033C6D" d="M9.145,22.147c-0.97,0.531-0.97,0.531-1.383-0.201C8.238,21.59,8.642,21.69,9.145,22.147z"/>
				<path fill="#033C6D" d="M3.168,21.848c-0.086,0.759-0.516,0.674-0.879,0.675c-0.377,0.001-0.544-0.194-0.452-0.636
					C2.235,21.56,2.658,21.738,3.168,21.848z"/>
			</g>
		</g>
		<g>
			<path fill="#033C6D" d="M100.277,16.366c6.781,0,13.561,0.024,20.341-0.016c1.886-0.011,3.737,1.309,4.232,3.115
				c0.083,0.304,0.124,0.626,0.135,0.941c0.021,0.607-0.021,1.217,0.011,1.823c0.107,2.047-1.77,4.194-4.175,4.278
				c-0.447,0.016-0.895,0.003-1.343,0.003c-13.113,0-26.227,0.003-39.34-0.002c-1.975-0.001-3.43-0.872-4.247-2.693
				c-0.178-0.397-0.269-0.853-0.302-1.29c-0.051-0.668-0.012-1.342-0.02-2.014c-0.028-2.219,2.059-4.164,4.271-4.155
				C86.652,16.385,93.465,16.367,100.277,16.366z M108.62,21.772c-0.079-0.383-0.158-0.766-0.229-1.11
				c-0.765-0.09-0.477,0.421-0.573,0.699c-0.158-0.195-0.311-0.383-0.499-0.614c-0.166,0.137-0.301,0.249-0.439,0.362
				c0.14,0.298,0.259,0.549,0.407,0.863c0.256-0.15,0.467-0.274,0.604-0.354c0.29,0.051,0.521,0.092,0.752,0.133
				c-0.102,0.549-0.59,0.694-0.98,0.945c-0.069,0.045-0.113,0.129-0.172,0.199c0.065,0.099,0.107,0.186,0.17,0.253
				c0.062,0.065,0.145,0.11,0.21,0.157c1.042-0.482,2.013-1.762,1.839-2.471c-0.188-0.024-0.393-0.051-0.524-0.068
				C108.971,21.148,108.796,21.46,108.62,21.772z M98.279,25.403c0.126-0.392,0.328-0.74,0.335-1.091
				c0.04-1.918,0.048-3.837,0.032-5.755c-0.007-0.8-0.399-1.163-1.18-1.164c-5.82-0.006-11.64-0.011-17.459,0.001
				c-0.924,0.002-1.719,0.368-2.41,1.001c-1.431,1.31-1.307,4.878-0.039,6.005c0.755,0.671,1.59,1.01,2.601,1.008
				c5.436-0.01,10.872-0.004,16.308-0.004C97.009,25.403,97.551,25.403,98.279,25.403z M111.425,22.512
				c-0.045-0.342-0.08-0.607-0.115-0.871c0.787-0.266,1.5-0.507,2.231-0.754c-0.031-0.194-0.054-0.338-0.075-0.467
				c0.245-0.166,0.486-0.33,0.707-0.48c-0.106-0.473-0.27-0.759-0.724-0.673c-0.597,0.113-0.285,0.681-0.499,1.069
				c-0.486,0.16-1.008,0.332-1.598,0.526c-0.025-0.52-0.044-0.921-0.066-1.383c-0.268,0.03-0.469,0.052-0.697,0.077
				c0,0.882-0.013,1.706,0.004,2.53c0.014,0.688,0.336,1.095,1.006,1.159c0.652,0.062,1.314,0.013,2.029,0.013
				c-0.042-0.319-0.068-0.52-0.098-0.744C112.836,22.512,112.203,22.512,111.425,22.512z M119.774,19.481
				c-0.495,0.679-0.978,1.341-1.483,2.034c0.166,0.092,0.349,0.193,0.589,0.325c0.35-0.374,0.675-0.721,1.045-1.117
				c0.282,0,0.612,0,0.95,0c-0.212,1.125-1.047,1.639-1.909,2.127c0.096,0.132,0.14,0.22,0.209,0.281
				c0.09,0.079,0.199,0.135,0.31,0.208c1.464-0.64,2.178-1.762,2.334-3.29c0.202-0.08,0.415-0.164,0.702-0.277
				c-0.212-0.269-0.363-0.462-0.511-0.649c-0.322,0.175-0.601,0.326-0.897,0.487c0.05,0.13,0.095,0.245,0.152,0.393
				c-0.29,0-0.566,0-0.834,0C120.231,19.53,120.231,19.53,119.774,19.481z M106.103,20.604c-0.845,0-1.601,0-2.384,0
				c0,0.2,0,0.343,0,0.469c0.579,0.283,1.26-0.141,1.954,0.422c-0.714,0.049-1.238,0.085-1.812,0.124
				c0.035,0.199,0.06,0.339,0.077,0.434c0.545,0.205,1.112-0.098,1.695,0.287c-0.685,0.368-1.317,0.068-1.931,0.286
				c0.018,0.172,0.036,0.339,0.057,0.539c0.812,0,1.559,0,2.344,0C106.103,22.299,106.103,21.481,106.103,20.604z M117.547,20.453
				c-0.76,1.177-1.821,1.771-3,2.254c0.156,0.246,0.266,0.42,0.392,0.618c1.303-0.451,2.333-1.16,3.076-2.281
				C117.862,20.849,117.747,20.704,117.547,20.453z M102.669,20.49c-0.76,1.16-1.774,1.76-2.932,2.199
				c0.077,0.177,0.12,0.292,0.177,0.399c0.043,0.082,0.105,0.154,0.168,0.244c1.278-0.445,2.272-1.171,3.071-2.248
				C103.003,20.899,102.873,20.74,102.669,20.49z M99.47,21.107c0.407,0.193,0.797,0.379,1.211,0.576
				c0.102-0.219,0.189-0.406,0.306-0.656c-0.423-0.178-0.787-0.332-1.188-0.501C99.669,20.755,99.58,20.911,99.47,21.107z
				 M116.07,20.543c-0.416-0.296-0.78-0.556-1.184-0.843c-0.159,0.245-0.268,0.415-0.404,0.625c0.406,0.271,0.763,0.509,1.129,0.754
				C115.765,20.899,115.882,20.763,116.07,20.543z M101.466,20.099c-0.391-0.19-0.75-0.364-1.129-0.548
				c-0.149,0.208-0.254,0.354-0.394,0.55c0.435,0.216,0.811,0.403,1.221,0.607C101.294,20.445,101.373,20.286,101.466,20.099z"/>
			<path fill="#FEFEFE" d="M98.279,25.403c-0.728,0-1.27,0-1.812,0c-5.436,0-10.872-0.006-16.308,0.004
				c-1.011,0.002-1.846-0.337-2.601-1.008c-1.268-1.127-1.392-4.695,0.039-6.005c0.69-0.632,1.486-0.999,2.41-1.001
				c5.82-0.012,11.64-0.007,17.459-0.001c0.781,0.001,1.173,0.364,1.18,1.164c0.017,1.918,0.008,3.837-0.032,5.755
				C98.606,24.663,98.404,25.011,98.279,25.403z M80.857,20.149c-0.027-0.182-0.062-0.421-0.099-0.671c-0.189,0-0.334,0-0.509,0
				c-0.037,0.266-0.07,0.504-0.115,0.826c-0.628,0-1.218,0-1.857,0c0.035,0.24,0.056,0.384,0.075,0.517
				c0.519,0.028,0.982,0.052,1.57,0.083c-0.49,0.699-1.087,1.142-1.728,1.595c0.202,0.19,0.33,0.31,0.482,0.453
				c0.51-0.429,0.967-0.814,1.45-1.22c0.065,0.793,0.065,0.793-0.681,1.104c0.016,0.138,0.033,0.282,0.061,0.517
				c0.455-0.069,0.841-0.127,1.295-0.196c0-0.793,0-1.485,0-2.173c0.406-0.079,0.727-0.141,1.053-0.205
				C81.806,19.994,81.182,20.424,80.857,20.149z M93.749,19.878c-0.304-0.209-0.449-0.308-0.5-0.343
				c-1.044,0.707-2.009,1.36-3.016,2.041c0.077,0.103,0.196,0.263,0.331,0.443c0.411-0.21,0.767-0.391,1.234-0.63
				c0,0.686,0,1.277,0,1.883c0.269,0,0.447,0,0.693,0c0-0.82,0-1.606,0-2.371c0.222-0.179,0.393-0.316,0.564-0.454
				C93.25,20.287,93.446,20.126,93.749,19.878z M88.836,21.205c-0.285,0.844-0.285,0.844-1.674,1.625
				c0.149,0.165,0.294,0.325,0.431,0.476c1.321-0.649,1.751-1.127,2.129-2.425c-0.271-0.091-0.545-0.251-0.824-0.263
				c-0.846-0.035-1.695-0.013-2.567-0.013c0.03,0.258,0.048,0.404,0.071,0.6C87.246,21.205,88.032,21.205,88.836,21.205z
				 M94.672,23.311c1.257-0.546,2.34-1.153,2.998-2.309c-0.123-0.175-0.212-0.301-0.344-0.49c-0.813,1.083-1.782,1.756-2.984,2.2
				C94.464,22.933,94.549,23.086,94.672,23.311z M85.427,20.583c-0.762,1.021-1.768,1.692-2.976,2.129
				c0.143,0.246,0.235,0.405,0.341,0.586c1.237-0.481,2.285-1.14,3.036-2.264C85.695,20.885,85.592,20.769,85.427,20.583z
				 M86.872,19.686c0,0.185,0,0.309,0,0.489c0.793,0,1.568,0,2.371,0c0-0.169,0-0.309,0-0.489
				C88.465,19.686,87.717,19.686,86.872,19.686z M83.993,20.586c-0.535-0.348-0.892-0.581-1.277-0.831
				c-0.152,0.232-0.247,0.377-0.358,0.546c0.384,0.263,0.716,0.49,1.117,0.764C83.625,20.926,83.758,20.804,83.993,20.586z
				 M94.623,19.744c-0.16,0.234-0.268,0.392-0.389,0.569c0.394,0.262,0.729,0.484,1.106,0.735c0.115-0.19,0.219-0.36,0.339-0.558
				C95.33,20.243,95.027,20.029,94.623,19.744z"/>
			<path fill="#FEFEFE" d="M111.425,22.512c0.777,0,1.41,0,2.105,0c0.03,0.225,0.056,0.425,0.098,0.744
				c-0.715,0-1.377,0.048-2.029-0.013c-0.671-0.064-0.992-0.471-1.006-1.159c-0.017-0.823-0.004-1.647-0.004-2.53
				c0.228-0.025,0.428-0.047,0.697-0.077c0.022,0.462,0.041,0.863,0.066,1.383c0.59-0.194,1.112-0.366,1.598-0.526
				c0.214-0.388-0.098-0.956,0.499-1.069c0.454-0.086,0.618,0.2,0.724,0.673c-0.221,0.15-0.462,0.314-0.707,0.48
				c0.021,0.129,0.044,0.273,0.075,0.467c-0.731,0.247-1.444,0.488-2.231,0.754C111.345,21.905,111.38,22.17,111.425,22.512z
				 M113.554,19.951c0.059-0.072,0.113-0.137,0.166-0.201c-0.044-0.027-0.11-0.087-0.129-0.075c-0.055,0.036-0.101,0.097-0.13,0.158
				C113.452,19.851,113.514,19.902,113.554,19.951z"/>
			<path fill="#FEFEFE" d="M119.774,19.481c0.457,0.049,0.457,0.049,0.657,0.52c0.267,0,0.544,0,0.834,0
				c-0.057-0.148-0.102-0.263-0.152-0.393c0.297-0.161,0.575-0.313,0.897-0.487c0.148,0.188,0.299,0.38,0.511,0.649
				c-0.288,0.114-0.501,0.198-0.702,0.277c-0.156,1.528-0.87,2.65-2.334,3.29c-0.111-0.073-0.22-0.129-0.31-0.208
				c-0.069-0.06-0.113-0.149-0.209-0.281c0.862-0.488,1.698-1.002,1.909-2.127c-0.338,0-0.668,0-0.95,0
				c-0.37,0.396-0.695,0.743-1.045,1.117c-0.239-0.132-0.422-0.233-0.589-0.325C118.796,20.822,119.279,20.16,119.774,19.481z"/>
			<path fill="#FEFEFE" d="M106.103,20.604c0,0.876,0,1.695,0,2.561c-0.785,0-1.533,0-2.344,0c-0.021-0.2-0.039-0.366-0.057-0.539
				c0.614-0.218,1.246,0.082,1.931-0.286c-0.583-0.384-1.149-0.082-1.695-0.287c-0.017-0.096-0.042-0.235-0.077-0.434
				c0.574-0.039,1.097-0.075,1.812-0.124c-0.694-0.563-1.374-0.139-1.954-0.422c0-0.126,0-0.269,0-0.469
				C104.502,20.604,105.258,20.604,106.103,20.604z"/>
			<path fill="#FEFEFE" d="M117.547,20.453c0.199,0.251,0.314,0.397,0.468,0.591c-0.744,1.121-1.774,1.829-3.076,2.281
				c-0.126-0.198-0.236-0.372-0.392-0.618C115.727,22.224,116.787,21.63,117.547,20.453z"/>
			<path fill="#FEFEFE" d="M102.669,20.49c0.204,0.251,0.334,0.409,0.484,0.594c-0.799,1.077-1.792,1.803-3.071,2.248
				c-0.063-0.09-0.125-0.162-0.168-0.244c-0.057-0.107-0.1-0.222-0.177-0.399C100.895,22.249,101.909,21.65,102.669,20.49z"/>
			<path fill="#FEFEFE" d="M108.62,21.772c0.176-0.312,0.351-0.624,0.566-1.006c0.131,0.017,0.336,0.043,0.524,0.068
				c0.174,0.71-0.797,1.989-1.839,2.471c-0.065-0.047-0.149-0.092-0.21-0.157c-0.063-0.067-0.105-0.153-0.17-0.253
				c0.059-0.07,0.102-0.154,0.172-0.199c0.39-0.251,0.878-0.396,0.98-0.945L108.62,21.772z"/>
			<path fill="#FEFEFE" d="M108.642,21.752c-0.231-0.041-0.461-0.082-0.752-0.133c-0.137,0.08-0.348,0.204-0.604,0.354
				c-0.148-0.313-0.266-0.565-0.407-0.863c0.138-0.114,0.273-0.225,0.439-0.362c0.188,0.231,0.341,0.419,0.499,0.614
				c0.096-0.278-0.192-0.788,0.573-0.699c0.071,0.343,0.15,0.726,0.229,1.11C108.62,21.772,108.642,21.752,108.642,21.752z"/>
			<path fill="#FEFEFE" d="M99.47,21.107c0.111-0.196,0.199-0.352,0.329-0.581c0.4,0.169,0.765,0.323,1.188,0.501
				c-0.116,0.25-0.204,0.437-0.306,0.656C100.266,21.486,99.876,21.3,99.47,21.107z"/>
			<path fill="#FEFEFE" d="M116.07,20.543c-0.188,0.219-0.305,0.356-0.458,0.535c-0.367-0.245-0.724-0.483-1.129-0.754
				c0.136-0.21,0.245-0.379,0.404-0.625C115.289,19.988,115.653,20.247,116.07,20.543z"/>
			<path fill="#FEFEFE" d="M101.466,20.099c-0.093,0.188-0.172,0.347-0.302,0.609c-0.41-0.204-0.786-0.391-1.221-0.607
				c0.141-0.196,0.245-0.342,0.394-0.55C100.716,19.734,101.076,19.909,101.466,20.099z"/>
			<path fill="#033C6D" d="M80.857,20.149c0.325,0.275,0.949-0.155,0.996,0.631c-0.326,0.063-0.647,0.126-1.053,0.205
				c0,0.688,0,1.38,0,2.173c-0.455,0.069-0.84,0.127-1.295,0.196c-0.027-0.235-0.044-0.379-0.061-0.517
				c0.746-0.311,0.746-0.311,0.681-1.104c-0.483,0.406-0.94,0.791-1.45,1.22c-0.152-0.142-0.28-0.262-0.482-0.453
				c0.641-0.453,1.238-0.896,1.728-1.595c-0.588-0.031-1.051-0.056-1.57-0.083c-0.019-0.133-0.04-0.277-0.075-0.517
				c0.639,0,1.229,0,1.857,0c0.045-0.322,0.078-0.56,0.115-0.826c0.175,0,0.32,0,0.509,0C80.795,19.727,80.83,19.967,80.857,20.149z
				"/>
			<path fill="#033C6D" d="M93.749,19.878c-0.303,0.248-0.499,0.41-0.696,0.57c-0.17,0.138-0.342,0.275-0.564,0.454
				c0,0.765,0,1.551,0,2.371c-0.246,0-0.424,0-0.693,0c0-0.606,0-1.197,0-1.883c-0.467,0.238-0.823,0.42-1.234,0.63
				c-0.135-0.181-0.254-0.341-0.331-0.443c1.007-0.681,1.972-1.334,3.016-2.041C93.3,19.57,93.444,19.669,93.749,19.878z"/>
			<path fill="#033C6D" d="M88.836,21.205c-0.804,0-1.59,0-2.434,0c-0.023-0.196-0.04-0.342-0.071-0.6
				c0.872,0,1.721-0.022,2.567,0.013c0.279,0.012,0.553,0.172,0.824,0.263c-0.377,1.298-0.807,1.776-2.129,2.425
				c-0.137-0.151-0.282-0.311-0.431-0.476C88.551,22.048,88.551,22.048,88.836,21.205z"/>
			<path fill="#033C6D" d="M94.672,23.311c-0.124-0.225-0.208-0.379-0.33-0.599c1.202-0.444,2.171-1.118,2.984-2.2
				c0.133,0.189,0.221,0.315,0.344,0.49C97.012,22.158,95.93,22.766,94.672,23.311z"/>
			<path fill="#033C6D" d="M85.427,20.583c0.165,0.186,0.268,0.302,0.401,0.452c-0.752,1.124-1.8,1.783-3.036,2.264
				c-0.106-0.182-0.198-0.34-0.341-0.586C83.658,22.275,84.664,21.604,85.427,20.583z"/>
			<path fill="#033C6D" d="M86.872,19.686c0.845,0,1.593,0,2.371,0c0,0.18,0,0.321,0,0.489c-0.803,0-1.578,0-2.371,0
				C86.872,19.995,86.872,19.871,86.872,19.686z"/>
			<path fill="#033C6D" d="M83.993,20.586c-0.235,0.218-0.368,0.34-0.518,0.479c-0.401-0.274-0.733-0.501-1.117-0.764
				c0.111-0.169,0.206-0.315,0.358-0.546C83.101,20.005,83.458,20.238,83.993,20.586z"/>
			<path fill="#033C6D" d="M94.623,19.744c0.404,0.285,0.707,0.499,1.057,0.746c-0.12,0.198-0.223,0.368-0.339,0.558
				c-0.378-0.251-0.712-0.473-1.106-0.735C94.355,20.136,94.463,19.977,94.623,19.744z"/>
			<path fill="#033C6D" d="M113.554,19.951c-0.041-0.05-0.102-0.101-0.094-0.118c0.029-0.061,0.075-0.121,0.13-0.158
				c0.019-0.012,0.085,0.048,0.129,0.075C113.667,19.815,113.614,19.88,113.554,19.951z"/>
		</g>
	</g>
</g>
</svg>
